<svg xmlns="http://www.w3.org/2000/svg" viewBox="0 0 150.21 172.65"><title>AntiNormal</title><path d="M109,99H89M99,89v20" transform="translate(-23.9 -19.48)" style="fill:none;stroke:#cc218b;stroke-miterlimit:10"/><polygon points="75.1 172.65 111.64 99.55 75.1 165.07 38.56 99.55 75.1 172.65" style="fill:#cc218b"/><polygon points="113.64 95.55 150.21 22.4 77.1 22.4 144.4 25.54 113.64 95.55" style="fill:#cc218b"/><polygon points="36.56 95.55 5.81 25.54 73.1 22.4 0 22.4 36.56 95.55" style="fill:#cc218b"/><polygon points="74.86 0 77.38 34.82 74.86 44.79 72.37 34.82 74.86 0" style="fill:#cc218b"/><polygon points="147.28 112.92 114.66 100.48 106.68 93.99 116.77 95.94 147.28 112.92" style="fill:#cc218b"/><polygon points="3.13 113.35 33.63 96.36 43.73 94.42 35.74 100.89 3.13 113.35" style="fill:#cc218b"/></svg>