<svg xmlns="http://www.w3.org/2000/svg" viewBox="0 0 195.05 173.15"><title>Prograde</title><path d="M109,99H89M99,89v20" transform="translate(-1.48 -1.48)" style="fill:none;stroke:#f90;stroke-miterlimit:10"/><circle cx="97.52" cy="97.52" r="75.13" style="fill:none;stroke:#f90;stroke-miterlimit:10"/><path d="M99,25.87A75.11,75.11,0,0,1,174.1,100c0-.33,0-.66,0-1A75.13,75.13,0,0,0,23.87,99c0,.34,0,.67,0,1A75.11,75.11,0,0,1,99,25.87Z" transform="translate(-1.48 -1.48)" style="fill:#f90"/><path d="M99,172.13A75.11,75.11,0,0,1,23.9,98c0,.33,0,.66,0,1a75.13,75.13,0,0,0,150.26,0c0-.34,0-.67,0-1A75.11,75.11,0,0,1,99,172.13Z" transform="translate(-1.48 -1.48)" style="fill:#f90"/><polygon points="97.31 0 99.83 34.82 97.31 44.79 94.82 34.82 97.31 0" style="fill:#f90"/><polygon points="195.05 97.31 160.23 99.83 150.26 97.31 160.23 94.82 195.05 97.31" style="fill:#f90"/><polygon points="0 97.73 34.82 95.22 44.79 97.73 34.82 100.23 0 97.73" style="fill:#f90"/></svg>