<svg xmlns="http://www.w3.org/2000/svg" viewBox="0 0 150.26 150.26"><title>Radial</title><path d="M109,99H89M99,89v20" transform="translate(-23.87 -23.54)" style="fill:none;stroke:#0faea9;stroke-miterlimit:10"/><polygon points="47.1 47.3 20.68 24.48 15.4 15.66 24.21 20.94 47.1 47.3" style="fill:#0faea9"/><polygon points="46.97 103.49 24.15 129.91 15.32 135.19 20.6 126.38 46.97 103.49" style="fill:#0faea9"/><polygon points="103.16 103.62 129.58 126.44 134.86 135.27 126.04 129.99 103.16 103.62" style="fill:#0faea9"/><polygon points="103.29 47.43 126.11 21.01 134.93 15.73 129.65 24.55 103.29 47.43" style="fill:#0faea9"/><path d="M99,25.54a75.11,75.11,0,0,1,75.1,74.13c0-.34,0-.67,0-1a75.13,75.13,0,0,0-150.26,0c0,.33,0,.66,0,1A75.11,75.11,0,0,1,99,25.54Z" transform="translate(-23.87 -23.54)" style="fill:#0faea9"/><path d="M99,171.79A75.11,75.11,0,0,1,23.9,97.67c0,.33,0,.66,0,1a75.13,75.13,0,0,0,150.26,0c0-.34,0-.67,0-1A75.11,75.11,0,0,1,99,171.79Z" transform="translate(-23.87 -23.54)" style="fill:#0faea9"/></svg>