<svg xmlns="http://www.w3.org/2000/svg" viewBox="0 0 154.94 154.94"><title>RadialOut</title><path d="M109,99H89M99,89v20" transform="translate(-21.53 -21.53)" style="fill:none;stroke:#0faea9;stroke-miterlimit:10"/><polygon points="0.04 0 26.46 22.82 31.75 31.64 22.93 26.36 0.04 0" style="fill:#0faea9"/><polygon points="0 154.89 22.82 128.47 31.64 123.19 26.36 132.01 0 154.89" style="fill:#0faea9"/><polygon points="154.89 154.94 128.47 132.12 123.19 123.29 132.01 128.57 154.89 154.94" style="fill:#0faea9"/><polygon points="154.94 0.04 132.12 26.46 123.29 31.75 128.57 22.93 154.94 0.04" style="fill:#0faea9"/><path d="M99,25.54a75.11,75.11,0,0,1,75.1,74.13c0-.34,0-.67,0-1a75.13,75.13,0,0,0-150.26,0c0,.33,0,.66,0,1A75.11,75.11,0,0,1,99,25.54Z" transform="translate(-21.53 -21.53)" style="fill:#0faea9"/><path d="M99,171.79A75.11,75.11,0,0,1,23.9,97.67c0,.33,0,.66,0,1a75.13,75.13,0,0,0,150.26,0c0-.34,0-.67,0-1A75.11,75.11,0,0,1,99,171.79Z" transform="translate(-21.53 -21.53)" style="fill:#0faea9"/></svg>