<svg id="Layer_9" data-name="Layer 9" xmlns="http://www.w3.org/2000/svg" viewBox="0 0 600 600"><defs><style>.cls-1{fill:#fff;}.cls-2,.cls-3{fill:none;stroke:#fff;stroke-miterlimit:10;}.cls-2{stroke-width:0.5px;}.cls-3{stroke-opacity:0.3;}</style></defs><title>Artboard 1</title><g id="Major"><polygon class="cls-1" points="301 31 303.28 22.88 301 1 301 31"/><polygon class="cls-1" points="299 31 296.72 22.88 299 1 299 31"/><polygon class="cls-1" points="31 299 22.88 296.72 1 299 31 299"/><polygon class="cls-1" points="31 301 22.88 303.28 1 301 31 301"/><polygon class="cls-1" points="299 569 296.72 577.12 299 599 299 569"/><polygon class="cls-1" points="301 569 303.28 577.12 301 599 301 569"/><polygon class="cls-1" points="569 301 577.12 303.28 599 301 569 301"/><polygon class="cls-1" points="569 299 577.12 296.72 599 299 569 299"/></g><g id="Layer_4" data-name="Layer 4"><polygon class="cls-1" points="92.11 92.11 105.66 103.85 108.37 108.37 103.85 105.66 92.11 92.11"/><polygon class="cls-1" points="92.11 507.89 103.85 494.34 108.37 491.63 105.66 496.15 92.11 507.89"/><polygon class="cls-1" points="507.89 507.89 494.34 496.15 491.63 491.63 496.15 494.34 507.89 507.89"/><polygon class="cls-1" points="507.89 92.11 496.15 105.66 491.63 108.37 494.34 103.85 507.89 92.11"/></g><g id="Layer_5" data-name="Layer 5"><polygon class="cls-1" points="189.19 32.49 192.27 42.64 194.19 41.84 189.19 32.49"/><polygon class="cls-1" points="32.49 410.81 42.64 407.73 41.84 405.81 32.49 410.81"/><polygon class="cls-1" points="410.81 567.51 407.73 557.36 405.81 558.16 410.81 567.51"/><polygon class="cls-1" points="567.51 189.19 557.36 192.27 558.16 194.19 567.51 189.19"/><polygon class="cls-1" points="32.49 189.19 41.84 194.19 42.64 192.27 32.49 189.19"/><polygon class="cls-1" points="189.19 567.51 194.19 558.16 192.27 557.36 189.19 567.51"/><polygon class="cls-1" points="567.51 410.81 558.16 405.81 557.36 407.73 567.51 410.81"/><polygon class="cls-1" points="410.81 32.49 405.81 41.84 407.73 42.64 410.81 32.49"/></g><g id="Layer_6" data-name="Layer 6"><circle class="cls-2" cx="300.5" cy="300" r="278.93"/></g><g id="Layer_7" data-name="Layer 7"><rect class="cls-1" x="244.19" y="22.57" width="2" height="3.85" transform="translate(-0.07 48.3) rotate(-11.25)"/><rect class="cls-1" x="24" y="353.38" width="2" height="3.85" transform="translate(-318.61 449.15) rotate(-101.25)"/><rect class="cls-1" x="354.81" y="573.58" width="2" height="3.85" transform="translate(817.06 1070.53) rotate(168.75)"/><rect class="cls-1" x="575" y="242.76" width="2" height="3.85" transform="translate(703.62 -367.98) rotate(78.75)"/><rect class="cls-1" x="142.97" y="64.71" width="2" height="3.85" transform="translate(-12.76 91.21) rotate(-33.75)"/><rect class="cls-1" x="66.13" y="454.6" width="2" height="3.85" transform="translate(-275.16 765.99) rotate(-123.75)"/><rect class="cls-1" x="456.03" y="531.44" width="2" height="3.85" transform="translate(1133.36 722.93) rotate(146.25)"/><rect class="cls-1" x="532.87" y="141.54" width="2" height="3.85" transform="translate(356.56 -380.13) rotate(56.25)"/><rect class="cls-1" x="65.58" y="142.37" width="2" height="3.85" transform="translate(-90.39 119.49) rotate(-56.25)"/><rect class="cls-1" x="143.8" y="531.99" width="2" height="3.85" transform="translate(-31.43 1058.31) rotate(-146.25)"/><rect class="cls-1" x="533.42" y="453.77" width="2" height="3.85" transform="translate(1210.23 264.52) rotate(123.75)"/><rect class="cls-1" x="455.2" y="64.15" width="2" height="3.85" transform="translate(113.6 -242.31) rotate(33.75)"/><rect class="cls-1" x="23.8" y="243.74" width="2" height="3.85" transform="translate(-220.99 222.07) rotate(-78.75)"/><rect class="cls-1" x="245.17" y="573.77" width="2" height="3.85" transform="translate(375.3 1188.36) rotate(-168.75)"/><rect class="cls-1" x="575.2" y="352.4" width="2" height="3.85" transform="translate(1036.13 -141.67) rotate(101.25)"/><rect class="cls-1" x="353.83" y="22.38" width="2" height="3.85" transform="matrix(0.98, 0.2, -0.2, 0.98, 11.56, -68.76)"/></g><g id="Layer_8" data-name="Layer 8"><circle class="cls-3" cx="300.5" cy="300" r="282.73"/></g></svg>