<svg xmlns="http://www.w3.org/2000/svg" viewBox="0 0 20.18 724"><title>Pitch2</title><polygon points="10.09 720 0.09 721 20.09 721 10.09 720" fill="#fff"/><polygon points="10.09 724 20.09 723 0.09 723 10.09 724" fill="#fff"/><rect x="9.75" y="719.75" width="0.5" height="0.5" transform="translate(-506.1 219.95) rotate(-45)" fill="#fff"/><polygon points="10.09 540 0.09 541 20.09 541 10.09 540" fill="#fff"/><polygon points="10.09 544 20.09 543 0.09 543 10.09 544" fill="#fff"/><rect x="9.75" y="539.75" width="0.5" height="0.5" transform="translate(-378.82 167.23) rotate(-45)" fill="#fff"/><polygon points="10.09 360 0.09 361 20.09 361 10.09 360" fill="#fff"/><polygon points="10.09 364 20.09 363 0.09 363 10.09 364" fill="#fff"/><rect x="9.75" y="359.75" width="0.5" height="0.5" transform="translate(-251.54 114.51) rotate(-45)" fill="#fff"/><polygon points="10.09 180 0.09 181 20.09 181 10.09 180" fill="#fff"/><polygon points="10.09 184 20.09 183 0.09 183 10.09 184" fill="#fff"/><rect x="9.75" y="179.75" width="0.5" height="0.5" transform="translate(-124.26 61.79) rotate(-45)" fill="#fff"/><polygon points="10.09 0 0.09 1 20.09 1 10.09 0" fill="#fff"/><polygon points="10.09 4 20.09 3 0.09 3 10.09 4" fill="#fff"/><rect x="9.75" y="-0.25" width="0.5" height="0.5" transform="translate(3.02 9.07) rotate(-45)" fill="#fff"/><polyline points="0.09 634.5 2.59 632 17.59 632 20.09 634.5" fill="none" stroke="#fff" stroke-miterlimit="10" stroke-width="0.25"/><polyline points="0.09 629.5 2.59 632 17.59 632 20.09 629.5" fill="none" stroke="#fff" stroke-miterlimit="10" stroke-width="0.25"/><polyline points="0.09 454.5 2.59 452 17.59 452 20.09 454.5" fill="none" stroke="#fff" stroke-miterlimit="10" stroke-width="0.25"/><polyline points="0.09 449.5 2.59 452 17.59 452 20.09 449.5" fill="none" stroke="#fff" stroke-miterlimit="10" stroke-width="0.25"/><polyline points="0.09 274.5 2.59 272 17.59 272 20.09 274.5" fill="none" stroke="#fff" stroke-miterlimit="10" stroke-width="0.25"/><polyline points="0.09 269.5 2.59 272 17.59 272 20.09 269.5" fill="none" stroke="#fff" stroke-miterlimit="10" stroke-width="0.25"/><polyline points="0.09 94.5 2.59 92 17.59 92 20.09 94.5" fill="none" stroke="#fff" stroke-miterlimit="10" stroke-width="0.25"/><polyline points="0.09 89.5 2.59 92 17.59 92 20.09 89.5" fill="none" stroke="#fff" stroke-miterlimit="10" stroke-width="0.25"/><polyline points="0.09 319.5 2.59 317 17.59 317 20.09 319.5" fill="none" stroke="#fff" stroke-miterlimit="10" stroke-width="0.25"/><polyline points="0.09 224.5 2.59 227 17.59 227 20.09 224.5" fill="none" stroke="#fff" stroke-miterlimit="10" stroke-width="0.25"/><polyline points="0.09 404.5 2.59 407 17.59 407 20.09 404.5" fill="none" stroke="#fff" stroke-miterlimit="10" stroke-width="0.25"/><polyline points="0.09 584.5 2.59 587 17.59 587 20.09 584.5" fill="none" stroke="#fff" stroke-miterlimit="10" stroke-width="0.25"/><polyline points="0.09 44.5 2.59 47 17.59 47 20.09 44.5" fill="none" stroke="#fff" stroke-miterlimit="10" stroke-width="0.25"/><polyline points="0.09 499.5 2.59 497 17.59 497 20.09 499.5" fill="none" stroke="#fff" stroke-miterlimit="10" stroke-width="0.25"/><polyline points="0.09 679.5 2.59 677 17.59 677 20.09 679.5" fill="none" stroke="#fff" stroke-miterlimit="10" stroke-width="0.25"/><polyline points="0.09 139.5 2.59 137 17.59 137 20.09 139.5" fill="none" stroke="#fff" stroke-miterlimit="10" stroke-width="0.25"/><line x1="6.09" y1="24.5" x2="14.09" y2="24.5" fill="none" stroke="#fff" stroke-miterlimit="10" stroke-width="0.25"/><line x1="6.09" y1="69.5" x2="14.09" y2="69.5" fill="none" stroke="#fff" stroke-miterlimit="10" stroke-width="0.25"/><line x1="6.09" y1="114.5" x2="14.09" y2="114.5" fill="none" stroke="#fff" stroke-miterlimit="10" stroke-width="0.25"/><line x1="6.09" y1="159.5" x2="14.09" y2="159.5" fill="none" stroke="#fff" stroke-miterlimit="10" stroke-width="0.25"/><line x1="6.09" y1="204.5" x2="14.09" y2="204.5" fill="none" stroke="#fff" stroke-miterlimit="10" stroke-width="0.25"/><line x1="6.09" y1="249.5" x2="14.09" y2="249.5" fill="none" stroke="#fff" stroke-miterlimit="10" stroke-width="0.25"/><line x1="6.09" y1="294.5" x2="14.09" y2="294.5" fill="none" stroke="#fff" stroke-miterlimit="10" stroke-width="0.25"/><line x1="6.09" y1="339.5" x2="14.09" y2="339.5" fill="none" stroke="#fff" stroke-miterlimit="10" stroke-width="0.25"/><line x1="6.09" y1="384.5" x2="14.09" y2="384.5" fill="none" stroke="#fff" stroke-miterlimit="10" stroke-width="0.25"/><line x1="6.09" y1="429.5" x2="14.09" y2="429.5" fill="none" stroke="#fff" stroke-miterlimit="10" stroke-width="0.25"/><line x1="6.09" y1="474.5" x2="14.09" y2="474.5" fill="none" stroke="#fff" stroke-miterlimit="10" stroke-width="0.25"/><line x1="6.09" y1="519.5" x2="14.09" y2="519.5" fill="none" stroke="#fff" stroke-miterlimit="10" stroke-width="0.25"/><line x1="6.09" y1="564.5" x2="14.09" y2="564.5" fill="none" stroke="#fff" stroke-miterlimit="10" stroke-width="0.25"/><line x1="6.09" y1="609.5" x2="14.09" y2="609.5" fill="none" stroke="#fff" stroke-miterlimit="10" stroke-width="0.25"/><line x1="6.09" y1="654.5" x2="14.09" y2="654.5" fill="none" stroke="#fff" stroke-miterlimit="10" stroke-width="0.25"/><line x1="6.09" y1="699.5" x2="14.09" y2="699.5" fill="none" stroke="#fff" stroke-miterlimit="10" stroke-width="0.25"/><line x1="10.09" y1="1.87" x2="10.09" y2="721.87" fill="none" stroke="#fff" stroke-miterlimit="10" stroke-dasharray="0.23 11.02"/></svg>