<svg xmlns="http://www.w3.org/2000/svg" viewBox="0 0 18.18 360.25"><defs><style>.a{fill:none;stroke:#fff;stroke-miterlimit:10;stroke-width:0.25px;}</style></defs><title>Pitch</title><line class="a" x1="8.09" y1="12.13" x2="10.09" y2="12.13"/><line class="a" x1="8.09" y1="35.13" x2="10.09" y2="35.13"/><line class="a" x1="8.09" y1="57.13" x2="10.09" y2="57.13"/><line class="a" x1="8.09" y1="79.13" x2="10.09" y2="79.13"/><line class="a" x1="8.09" y1="103.13" x2="10.09" y2="103.13"/><line class="a" x1="8.09" y1="128.13" x2="10.09" y2="128.13"/><line class="a" x1="8.09" y1="150.13" x2="10.09" y2="150.13"/><line class="a" x1="8.09" y1="170.13" x2="10.09" y2="170.13"/><line class="a" x1="8.09" y1="191.13" x2="10.09" y2="191.13"/><line class="a" x1="8.09" y1="213.13" x2="10.09" y2="213.13"/><line class="a" x1="8.09" y1="235.13" x2="10.09" y2="235.13"/><line class="a" x1="8.09" y1="257.13" x2="10.09" y2="257.13"/><line class="a" x1="8.09" y1="282.13" x2="10.57" y2="282.13"/><line class="a" x1="8.09" y1="302.13" x2="10.09" y2="302.13"/><line class="a" x1="8.09" y1="324.13" x2="10.09" y2="324.13"/><line class="a" x1="8.09" y1="348.13" x2="10.09" y2="348.13"/><line class="a" x1="5.09" y1="24.13" x2="13.09" y2="24.13"/><line class="a" x1="5.09" y1="68.13" x2="13.09" y2="68.13"/><line class="a" x1="5.09" y1="116.13" x2="13.09" y2="116.13"/><line class="a" x1="5.09" y1="160.13" x2="13.09" y2="160.13"/><line class="a" x1="5.09" y1="202.13" x2="13.09" y2="202.13"/><line class="a" x1="5.09" y1="246.13" x2="13.09" y2="246.13"/><line class="a" x1="5.09" y1="292.13" x2="13.09" y2="292.13"/><line class="a" x1="5.09" y1="336.13" x2="13.09" y2="336.13"/><polyline class="a" points="0.09 358.63 1.59 360.13 16.59 360.13 18.09 358.63"/><polyline class="a" points="0.09 178.63 1.59 180.13 16.59 180.13 18.09 178.63"/><polyline class="a" points="18.09 181.63 16.59 180.13 1.59 180.13 0.09 181.63"/><polyline class="a" points="18.09 1.63 16.59 0.13 1.59 0.13 0.09 1.63"/><polyline class="a" points="0.09 88.63 1.59 90.13 16.59 90.13 18.09 88.63"/><polyline class="a" points="0.09 271.63 1.59 270.13 16.59 270.13 18.09 271.63"/><line class="a" x1="1.59" y1="45.13" x2="16.59" y2="45.13"/><line class="a" x1="1.59" y1="140.13" x2="16.59" y2="140.13"/><line class="a" x1="1.59" y1="224.13" x2="16.59" y2="224.13"/><line class="a" x1="1.59" y1="312.13" x2="16.59" y2="312.13"/></svg>