<svg xmlns="http://www.w3.org/2000/svg" data-name="Layer 8" viewBox="0 0 600 600"><path fill="#fff" d="M579.67 300.75v-.22-.53-.75H599v-.5l-19.4-2a279.71 279.71 0 00-5.15-50.46l3.9-.78-.49-2.45-3.88.77a276.88 276.88 0 00-15.14-49.71l8.76-4.69-.19-.46-9.5 2.88a278.24 278.24 0 00-24.87-46.33l3.3-2.2-1.34-2.1-3.3 2.21a280 280 0 00-33.12-40.17l9.52-11-.35-.35-11 9.52a279.81 279.81 0 00-40.49-33.17l2.19-3.26-2.08-1.38-2.21 3.3a278.46 278.46 0 00-46.07-24.56l3-9.76-.46-.19-4.82 9a276.47 276.47 0 00-50.06-15.09l.77-3.88-2.52-.52-.78 3.91a280.29 280.29 0 00-49.92-5L301.25 1h-.5v19.83h-1.5V1h-.5l-2.08 19.9a281.28 281.28 0 00-49.9 5.1l-.78-3.9-2.45.49.77 3.89a277 277 0 00-49.92 15.18l-5-9.31-.46.19L192 42.66a277.28 277.28 0 00-46 24.75l-2.19-3.28-2.08 1.39 2.2 3.3a280.89 280.89 0 00-40.13 33.08l-11.53-10-.35.35 10 11.53a281.54 281.54 0 00-33.15 40.46l-3.3-2.21-1.38 2.08 3.29 2.2a276.75 276.75 0 00-24.45 45.76L32.56 189l-.19.46 9.56 5.11a276.91 276.91 0 00-15.12 50.27l-3.9-.77-.49 2.45 3.91.78a280.11 280.11 0 00-5 49.37L1 298.75v.5h20.33v1.5H1v.5l20.4 2.13a280.66 280.66 0 005.15 50.35l-3.9.78.49 2.45 3.89-.77a276.2 276.2 0 0014.93 49.29l-9.56 5.11.19.46 10.36-3.14a276.55 276.55 0 0025 46.6l-3.29 2.19 1.34 2.08 3.31-2.21a281.42 281.42 0 0032.58 39.63l-10 11.53.35.35 11.53-10a281.16 281.16 0 0041 33.65l-2.2 3.29 2.08 1.38 2.2-3.29A276.58 276.58 0 00192 557.34l-3 10.1.46.19 5-9.31a276.21 276.21 0 0050.9 15.37l-.77 3.9 2.45.49.78-3.91a281.82 281.82 0 0048.92 5l2.08 19.9h.5v-19.91h1.5V599h.5l2.08-19.89a280.06 280.06 0 0050.9-5.15l.78 3.89 2.45-.49-.77-3.89a277.13 277.13 0 0049.08-14.87l4.82 9 .46-.19-3-9.76A279.23 279.23 0 00455 532.58l2.2 3.29 2.08-1.39-2.21-3.31a280.36 280.36 0 0039.66-32.61l11 9.52.35-.35-9.52-11a280.68 280.68 0 0033.68-41l3.3 2.2 1.38-2.08-3.3-2.21a278.67 278.67 0 0024.32-45.49l9.5 2.88.19-.46-8.76-4.69a276.28 276.28 0 0015.33-50.69l3.89.77.49-2.45-3.91-.78a280 280 0 005-49.48l19.4-2v-.5zm-2.17-57.12l.29 1.47-3.29.65-.29-1.47zm-42.66-101.72l.84 1.25-2.79 1.84-.84-1.24zm-78.33-77.64l1.24.83-1.86 2.79-1.25-.83zM354.42 22.51l1.47.29-.65 3.29-1.47-.29zm-108.82.2l.65 3.29-1.47.29-.65-3.29zm-51.76 19l-1.41.59-2.26-7.46zm-50.18 23.11l1.86 2.79-1.24.84-1.87-2.79zM65.6 142.75l2.79 1.86-.83 1.25-2.79-1.86zm-30.76 47.42l7.46 2.26-.59 1.41zM23 246.08l.29-1.47 3.29.65-.29 1.47zm.49 110.29l-.29-1.47 3.29-.65.29 1.47zm11.34 53.46l6.87-3.67.59 1.41zm31.32 48.26l-.84-1.25 2.8-1.84.84 1.24zm78.33 77.64l-1.24-.83 1.86-2.79 1.25.83zm45.68 29.43l2.26-7.46 1.41.59zm56.41 12.33l-1.47-.29.65-3.29 1.47.29zm108.82-.2l-.65-3.29 1.47-.29.65 3.29zm101.94-42.11l-1.86-2.79 1.24-.84 1.87 2.79zm78.06-77.93l-2.79-1.86.83-1.25 2.79 1.87zM578 353.92l-.29 1.47-3.29-.65.29-1.47zm1.15-51.1v.18a277.08 277.08 0 01-20.82 102.88l-.09.21 6.93 3.7-7.51-2.27-.08.21a277.87 277.87 0 01-59.52 88.78l-.17.16 7.54 8.71-8.55-7.38-.17-.15-.17.16a277.53 277.53 0 01-88.85 59.26l-.21.09 2.35 7.77L406 558l-.21.09a277 277 0 01-102.69 20.55h-.23l-1.62 15.55v-15.52h-2.5v15.53l-1.62-15.57h-.23A277.16 277.16 0 01104 497.58l-.17-.16-9.24 8 7.86-9.07.15-.18-.17-.16a277.22 277.22 0 01-80.57-192.86v-.22L5.8 301.25h16V301v-.48-.52-.52-.73h-16l16.06-1.68v-.22A277.22 277.22 0 01102.42 104l.17-.16-8-9.25 9.24 8 .17-.16a277.12 277.12 0 01192.91-81h.23l1.61-15.63v15.54h2.5V5.8l1.62 15.55h.23a277 277 0 01102.69 20.57l.21.08 3.83-7.17-2.35 7.77.21.09A277.53 277.53 0 01496.54 102l.17.16 8.71-7.54-7.54 8.7.17.17a277.87 277.87 0 0159.52 88.78l.08.21 7.51-2.27-6.93 3.7.09.21A277.08 277.08 0 01579.14 297v.22l15.06 1.57h-15v2.46h15z" data-name="Layer 6"/></svg>