<svg id="Layer_8" data-name="Layer 8" xmlns="http://www.w3.org/2000/svg" viewBox="0 0 600 600"><defs><style>.cls-1{fill:#fff;}</style></defs><title>Roll</title><g id="Layer_6" data-name="Layer 6"><path class="cls-1" d="M579.92,300.5c0-.17,0-.33,0-.5s0-.33,0-.5h19.32l0-1-19.41-2a281.28,281.28,0,0,0-5.1-50l3.9-.77-.59-2.95-3.89.78a278.51,278.51,0,0,0-15-49.31l8.76-4.68-.37-.88-9.5,2.88a278.86,278.86,0,0,0-24.66-46l3.3-2.2-1.67-2.5-3.31,2.21a280.75,280.75,0,0,0-32.84-39.83l9.52-11-.68-.68-11,9.52a281.1,281.1,0,0,0-40.15-32.9l2.2-3.3-2.49-1.67-2.21,3.3a279.56,279.56,0,0,0-45.7-24.35l3-9.76-.88-.37-4.81,9A277.74,277.74,0,0,0,356,26.1l.77-3.89-2.94-.58-.78,3.91a281.84,281.84,0,0,0-49.5-4.93L301.5,1l0-.24-1,.05V20.57h-1V.76l-1-.05-2.08,19.92A281.83,281.83,0,0,0,247,25.73l-.77-3.91-2.95.59L244,26.3a278.64,278.64,0,0,0-49.51,15.06l-5-9.31-.88.37,3.06,10.09a277.68,277.68,0,0,0-45.65,24.56l-2.19-3.29-2.5,1.67,2.21,3.3a282.17,282.17,0,0,0-39.79,32.81l-11.53-10-.68.68,10,11.53a282.68,282.68,0,0,0-32.88,40.12l-3.29-2.2-1.67,2.49L67,146.4a278.72,278.72,0,0,0-24.25,45.39l-10.35-3.14-.37.88,9.56,5.11a278,278,0,0,0-15,49.86l-3.9-.77-.58,2.94,3.91.78a282.26,282.26,0,0,0-4.92,48.95L.71,298.53l.05,1H21.08v0c0,.16,0,.31,0,.47s0,.31,0,.47v0H.76l-.05,1,20.41,2.13a282.07,282.07,0,0,0,5.11,49.94l-3.91.77.59,2.94,3.89-.77a277.87,277.87,0,0,0,14.81,48.88l-9.56,5.11.37.88,10.35-3.14a278.53,278.53,0,0,0,24.8,46.23l-3.29,2.19,1.67,2.5,3.31-2.21a282.91,282.91,0,0,0,32.31,39.29l-10,11.53.68.68,11.53-10a282.47,282.47,0,0,0,40.61,33.38l-2.19,3.29,2.49,1.66,2.2-3.29a278.34,278.34,0,0,0,44.81,24l-3.06,10.09.88.37,5-9.31A278.33,278.33,0,0,0,245,573.89l-.77,3.9,2.94.58.77-3.9a284,284,0,0,0,48.51,4.91l2.08,19.91,1,0V579.41h1v19.81l1,0,2.08-19.9A281.4,281.4,0,0,0,354,574.28l.77,3.9,2.94-.59L357,573.7a278.52,278.52,0,0,0,48.68-14.76l4.71,8.81.1.2.88-.37-3-9.76a279.39,279.39,0,0,0,46.54-24.9l2.2,3.3,2.5-1.67-2.22-3.31a281.09,281.09,0,0,0,39.33-32.34l10.82,9.37.18.15.68-.68-9.52-11a280.52,280.52,0,0,0,33.41-40.66l3.3,2.2,1.66-2.49-3.3-2.21a279.14,279.14,0,0,0,24.11-45.12l9.5,2.88.37-.88-8.76-4.68A278.35,278.35,0,0,0,574.4,355.5l3.89.77.58-2.94-3.91-.78a281.64,281.64,0,0,0,4.92-49.05l19.17-2,.24,0,0-1ZM356,574l.56,2.79-1,.2-.56-2.8ZM245.4,577l.56-2.8,1,.2-.56,2.8Zm-51.91-18.59-2.35,4.4,1.45-4.77ZM192.59,42l-1.45-4.77,2.35,4.4ZM245,26l-.56-2.8,1-.19.56,2.8ZM355.6,23,355,25.8l-1-.2.56-2.79ZM533,455.32l.55-.83,2.37,1.59-.55.83Zm24.55-48.07-.17.42a277.39,277.39,0,0,1-59.47,88.7l-.33.33L503,503l-6.25-5.41-.33.32a277.25,277.25,0,0,1-88.78,59.21l-.42.18,1.69,5.56-2.75-5.13-.41.17a276.84,276.84,0,0,1-102.6,20.54h-.45l-1.15,11v-11h-3v11l-1.15-11h-.44a276.92,276.92,0,0,1-192.75-81l-.33-.32L97,503l5.89-6.8-.33-.33A276.94,276.94,0,0,1,22.11,303.15v-.45L10.6,301.5H22.09V301c0-.16,0-.33,0-.49s0-.34,0-.51,0-.34,0-.51,0-.33,0-.49v-.5H10.6l11.51-1.2v-.45A276.94,276.94,0,0,1,102.6,104.17l.33-.33L97,97l6.79,5.88.33-.32a276.92,276.92,0,0,1,192.75-81h.44l1.15-11v11h3v-11l1.15,11h.45A276.76,276.76,0,0,1,405.7,42.15l.41.18,2.75-5.14-1.69,5.56.42.18a277.25,277.25,0,0,1,88.78,59.21l.33.32L503,97.05l-5.42,6.25.33.33a277.39,277.39,0,0,1,59.47,88.7l.17.42,5.3-1.61-4.89,2.62.17.41A276.79,276.79,0,0,1,578.89,297v.44l10.51,1.1H578.91v.5c0,.16,0,.33,0,.49s0,.34,0,.51,0,.34,0,.51,0,.33,0,.49v.5H589.4l-10.51,1.1V303a276.79,276.79,0,0,1-20.8,102.79l-.17.41,4.89,2.62ZM68,455.32l.56.83-2.37,1.59-.56-.83ZM42,407.41l-4.77,1.45,4.4-2.35ZM26.49,355.52l-2.8.56-.19-1,2.8-.56ZM26.3,245.46l-.2,1-2.79-.56.19-1ZM42,192.59l-.37.9-4.4-2.35ZM68,144.68l-.55.83-2.37-1.59.55-.83Zm464.36-.83,2.37-1.59.56.83L533,144.68Zm42.11,100.63,2.79-.56.2,1-2.8.56ZM455,67l1.59-2.37.83.55-1.59,2.37ZM144.35,68.1l-1.59-2.37.83-.56,1.59,2.37Zm-.76,466.73,1.59-2.37.83.55-1.59,2.37Zm313.06-2.93,1.59,2.37-.83.56-1.59-2.37ZM574.7,354.54l.2-1,2.8.56-.2,1Z"/></g></svg>