<svg xmlns="http://www.w3.org/2000/svg" xmlns:xlink="http://www.w3.org/1999/xlink" viewBox="0 0 598 598"><defs><style>.a,.d,.e,.h,.i{fill:none;}.b{clip-path:url(#a);}.c{fill:#fff;}.d,.e{stroke:#fff;}.d,.e,.h,.i{stroke-miterlimit:10;}.d,.h{stroke-opacity:0.3;}.e,.i{stroke-width:0.5px;}.f{clip-path:url(#b);}.g{fill:#ae0f12;}.h,.i{stroke:#ae0f12;}</style><clipPath id="a" transform="translate(-1 -1)"><rect class="a" y="300" width="600" height="300"/></clipPath><clipPath id="b" transform="translate(-1 -1)"><rect class="a" width="600" height="300"/></clipPath></defs><title>RollIndicator</title><g class="b"><polygon class="c" points="300 30 302.29 21.88 300 0 300 30"/><polygon class="c" points="298 30 295.72 21.88 298 0 298 30"/><polygon class="c" points="30 298 21.88 295.72 0 298 30 298"/><polygon class="c" points="30 300 21.88 302.29 0 300 30 300"/><polygon class="c" points="298 568 295.72 576.12 298 598 298 568"/><polygon class="c" points="300 568 302.29 576.12 300 598 300 568"/><polygon class="c" points="568 300 576.12 302.29 598 300 568 300"/><polygon class="c" points="568 298 576.12 295.72 598 298 568 298"/><polygon class="c" points="91.11 91.11 104.66 102.85 107.38 107.38 102.85 104.66 91.11 91.11"/><polygon class="c" points="91.11 506.89 102.85 493.34 107.38 490.63 104.66 495.15 91.11 506.89"/><polygon class="c" points="506.89 506.89 493.34 495.15 490.63 490.63 495.15 493.34 506.89 506.89"/><polygon class="c" points="506.89 91.11 495.15 104.66 490.63 107.38 493.34 102.85 506.89 91.11"/><polygon class="c" points="188.19 31.49 191.27 41.64 193.19 40.84 188.19 31.49"/><polygon class="c" points="31.49 409.81 41.64 406.73 40.84 404.81 31.49 409.81"/><polygon class="c" points="409.81 566.51 406.73 556.37 404.81 557.16 409.81 566.51"/><polygon class="c" points="566.51 188.19 556.37 191.27 557.16 193.19 566.51 188.19"/><polygon class="c" points="31.49 188.19 40.84 193.19 41.64 191.27 31.49 188.19"/><polygon class="c" points="188.19 566.51 193.19 557.16 191.27 556.37 188.19 566.51"/><polygon class="c" points="566.51 409.81 557.16 404.81 556.37 406.73 566.51 409.81"/><polygon class="c" points="409.81 31.49 404.81 40.84 406.73 41.64 409.81 31.49"/><rect class="c" x="244.19" y="22.57" width="2" height="3.85" transform="translate(-1.07 47.31) rotate(-11.25)"/><rect class="c" x="24" y="353.38" width="2" height="3.85" transform="translate(-319.61 448.15) rotate(-101.25)"/><rect class="c" x="354.81" y="573.58" width="2" height="3.85" transform="translate(816.06 1069.53) rotate(168.75)"/><rect class="c" x="575" y="242.76" width="2" height="3.85" transform="translate(702.62 -368.98) rotate(78.75)"/><rect class="c" x="142.97" y="64.71" width="2" height="3.85" transform="translate(-13.76 90.22) rotate(-33.75)"/><rect class="c" x="66.13" y="454.6" width="2" height="3.85" transform="translate(-276.16 764.99) rotate(-123.75)"/><rect class="c" x="456.03" y="531.44" width="2" height="3.85" transform="translate(1132.36 721.93) rotate(146.25)"/><rect class="c" x="532.87" y="141.54" width="2" height="3.85" transform="translate(355.56 -381.13) rotate(56.25)"/><rect class="c" x="65.58" y="142.37" width="2" height="3.85" transform="translate(-91.39 118.49) rotate(-56.25)"/><rect class="c" x="143.8" y="531.99" width="2" height="3.85" transform="translate(-32.43 1057.31) rotate(-146.25)"/><rect class="c" x="533.42" y="453.77" width="2" height="3.85" transform="translate(1209.23 263.52) rotate(123.75)"/><rect class="c" x="455.2" y="64.15" width="2" height="3.85" transform="translate(112.6 -243.31) rotate(33.75)"/><rect class="c" x="23.8" y="243.74" width="2" height="3.85" transform="translate(-221.98 221.07) rotate(-78.75)"/><rect class="c" x="245.17" y="573.77" width="2" height="3.85" transform="translate(374.3 1187.36) rotate(-168.75)"/><rect class="c" x="575.2" y="352.4" width="2" height="3.85" transform="translate(1035.13 -142.67) rotate(101.25)"/><rect class="c" x="353.83" y="22.38" width="2" height="3.85" transform="matrix(0.98, 0.2, -0.2, 0.98, 10.56, -69.76)"/><circle class="d" cx="299.5" cy="299" r="282.73"/><circle class="e" cx="299.5" cy="299" r="278.93"/></g><g class="f"><polygon class="g" points="300 30 302.29 21.88 300 0 300 30"/><polygon class="g" points="298 30 295.72 21.88 298 0 298 30"/><polygon class="g" points="30 298 21.88 295.72 0 298 30 298"/><polygon class="g" points="30 300 21.88 302.29 0 300 30 300"/><polygon class="g" points="298 568 295.72 576.12 298 598 298 568"/><polygon class="g" points="300 568 302.29 576.12 300 598 300 568"/><polygon class="g" points="568 300 576.12 302.29 598 300 568 300"/><polygon class="g" points="568 298 576.12 295.72 598 298 568 298"/><polygon class="g" points="91.11 91.11 104.66 102.85 107.38 107.38 102.85 104.66 91.11 91.11"/><polygon class="g" points="91.11 506.89 102.85 493.34 107.38 490.63 104.66 495.15 91.11 506.89"/><polygon class="g" points="506.89 506.89 493.34 495.15 490.63 490.63 495.15 493.34 506.89 506.89"/><polygon class="g" points="506.89 91.11 495.15 104.66 490.63 107.38 493.34 102.85 506.89 91.11"/><polygon class="g" points="188.19 31.49 191.27 41.64 193.19 40.84 188.19 31.49"/><polygon class="g" points="31.49 409.81 41.64 406.73 40.84 404.81 31.49 409.81"/><polygon class="g" points="409.81 566.51 406.73 556.37 404.81 557.16 409.81 566.51"/><polygon class="g" points="566.51 188.19 556.37 191.27 557.16 193.19 566.51 188.19"/><polygon class="g" points="31.49 188.19 40.84 193.19 41.64 191.27 31.49 188.19"/><polygon class="g" points="188.19 566.51 193.19 557.16 191.27 556.37 188.19 566.51"/><polygon class="g" points="566.51 409.81 557.16 404.81 556.37 406.73 566.51 409.81"/><polygon class="g" points="409.81 31.49 404.81 40.84 406.73 41.64 409.81 31.49"/><rect class="g" x="244.19" y="22.57" width="2" height="3.85" transform="translate(-1.07 47.31) rotate(-11.25)"/><rect class="g" x="24" y="353.38" width="2" height="3.85" transform="translate(-319.61 448.15) rotate(-101.25)"/><rect class="g" x="354.81" y="573.58" width="2" height="3.85" transform="translate(816.06 1069.53) rotate(168.75)"/><rect class="g" x="575" y="242.76" width="2" height="3.85" transform="translate(702.62 -368.98) rotate(78.75)"/><rect class="g" x="142.97" y="64.71" width="2" height="3.85" transform="translate(-13.76 90.22) rotate(-33.75)"/><rect class="g" x="66.13" y="454.6" width="2" height="3.85" transform="translate(-276.16 764.99) rotate(-123.75)"/><rect class="g" x="456.03" y="531.44" width="2" height="3.85" transform="translate(1132.36 721.93) rotate(146.25)"/><rect class="g" x="532.87" y="141.54" width="2" height="3.85" transform="translate(355.56 -381.13) rotate(56.25)"/><rect class="g" x="65.58" y="142.37" width="2" height="3.85" transform="translate(-91.39 118.49) rotate(-56.25)"/><rect class="g" x="143.8" y="531.99" width="2" height="3.85" transform="translate(-32.43 1057.31) rotate(-146.25)"/><rect class="g" x="533.42" y="453.77" width="2" height="3.85" transform="translate(1209.23 263.52) rotate(123.75)"/><rect class="g" x="455.2" y="64.15" width="2" height="3.85" transform="translate(112.6 -243.31) rotate(33.75)"/><rect class="g" x="23.8" y="243.74" width="2" height="3.85" transform="translate(-221.98 221.07) rotate(-78.75)"/><rect class="g" x="245.17" y="573.77" width="2" height="3.85" transform="translate(374.3 1187.36) rotate(-168.75)"/><rect class="g" x="575.2" y="352.4" width="2" height="3.85" transform="translate(1035.13 -142.67) rotate(101.25)"/><rect class="g" x="353.83" y="22.38" width="2" height="3.85" transform="matrix(0.98, 0.2, -0.2, 0.98, 10.56, -69.76)"/><circle class="h" cx="299.5" cy="299" r="282.73"/><circle class="i" cx="299.5" cy="299" r="278.93"/></g></svg>